<?xml version="1.0" encoding="UTF-8"?>
<svg width="40px" height="24px" viewBox="0 0 40 24" version="1.1" xmlns="http://www.w3.org/2000/svg" xmlns:xlink="http://www.w3.org/1999/xlink">
    <!-- Generator: Sketch 53.2 (72643) - https://sketchapp.com -->
    <title>ic_card_amex</title>
    <desc>Created with Sketch.</desc>
    <defs>
        <radialGradient cx="35.08%" cy="165.060162%" fx="35.08%" fy="165.060162%" r="138.263403%" gradientTransform="translate(0.350800,1.650602),scale(0.666667,1.000000),translate(-0.350800,-1.650602)" id="radialGradient-1">
            <stop stop-color="#9DD5F6" offset="0%"></stop>
            <stop stop-color="#98D3F5" offset="7.11%"></stop>
            <stop stop-color="#89CEF3" offset="15.75%"></stop>
            <stop stop-color="#70C6EF" offset="25.16%"></stop>
            <stop stop-color="#4EBBEA" offset="35.14%"></stop>
            <stop stop-color="#23ADE3" offset="45.46%"></stop>
            <stop stop-color="#0DA6E0" offset="50%"></stop>
            <stop stop-color="#2E77BC" offset="100%"></stop>
        </radialGradient>
    </defs>
    <g id="Page-1" stroke="none" stroke-width="1" fill="none" fill-rule="evenodd">
        <g id="Artboard-Copy-9" transform="translate(-1.000000, -1.000000)">
            <g id="ic_card_amex" transform="translate(1.000000, 1.000000)">
                <rect id="Mask-Copy" stroke="#E8E9EA" fill="#FFFFFF" x="0.5" y="0.5" width="39" height="23" rx="2"></rect>
                <g id="amex" transform="translate(7.000000, 3.000000)" fill-rule="nonzero">
                    <rect id="Rectangle-path" fill="url(#radialGradient-1)" x="0" y="0" width="26" height="17.3333333"></rect>
                    <path d="M2.30894444,7.02216667 L1.81638889,5.82183333 L1.326,7.02216667 L2.30894444,7.02216667 Z M13.1632222,6.54405556 C13.0642778,6.604 12.9472778,6.60616667 12.8071667,6.60616667 L11.9325556,6.60616667 L11.9325556,5.93738889 L12.8187222,5.93738889 C12.9443889,5.93738889 13.0751111,5.94316667 13.1603333,5.99155556 C13.2535,6.03561111 13.3112778,6.12877778 13.3112778,6.25805556 C13.312,6.3895 13.2571111,6.49566667 13.1632222,6.54405556 Z M19.4025,7.02216667 L18.9041667,5.82183333 L18.4087222,7.02216667 L19.4025,7.02216667 Z M7.77255556,8.32216667 L7.03444444,8.32216667 L7.03227778,5.96338889 L5.98866667,8.32216667 L5.356,8.32216667 L4.3095,5.96122222 L4.3095,8.32216667 L2.84555556,8.32216667 L2.56894444,7.6505 L1.06961111,7.6505 L0.790111111,8.32216667 L0.00866666667,8.32216667 L1.29783333,5.3105 L2.36744444,5.3105 L3.59161111,8.16183333 L3.59161111,5.3105 L4.76666667,5.3105 L5.70844444,7.35366667 L6.57366667,5.3105 L7.77255556,5.3105 L7.77255556,8.32216667 Z M10.7141667,8.32216667 L8.30916667,8.32216667 L8.30916667,5.3105 L10.7141667,5.3105 L10.7141667,5.93738889 L9.02922222,5.93738889 L9.02922222,6.4805 L10.6737222,6.4805 L10.6737222,7.098 L9.02922222,7.098 L9.02922222,7.69961111 L10.7141667,7.69961111 L10.7141667,8.32216667 Z M14.105,6.12155556 C14.105,6.60183333 13.7843333,6.84955556 13.598,6.92466667 C13.7554444,6.98461111 13.8897778,7.09077778 13.9540556,7.17816667 C14.0558889,7.32766667 14.0732222,7.462 14.0732222,7.73066667 L14.0732222,8.32216667 L13.3466667,8.32216667 L13.3437778,7.94227778 C13.3437778,7.761 13.3611111,7.50027778 13.2303889,7.35583333 C13.1249444,7.24966667 12.9646111,7.22727778 12.7060556,7.22727778 L11.9332778,7.22727778 L11.9332778,8.32288889 L11.2132222,8.32288889 L11.2132222,5.31122222 L12.8692778,5.31122222 C13.2368889,5.31122222 13.5084444,5.32133333 13.741,5.45566667 C13.9685,5.58927778 14.105,5.78572222 14.105,6.12155556 Z M15.2569444,8.32216667 L14.5224444,8.32216667 L14.5224444,5.3105 L15.2569444,5.3105 L15.2569444,8.32216667 Z M23.7784444,8.32216667 L22.7586667,8.32216667 L21.3943889,6.06161111 L21.3943889,8.32216667 L19.9282778,8.32216667 L19.6480556,7.6505 L18.1523333,7.6505 L17.8807778,8.32216667 L17.0386667,8.32216667 C16.6891111,8.32216667 16.2456667,8.24488889 15.9950556,7.98922222 C15.7422778,7.73355556 15.6101111,7.38688889 15.6101111,6.83944444 C15.6101111,6.39311111 15.6888333,5.98433333 15.9979444,5.6615 C16.2305,5.421 16.5952222,5.3105 17.0913889,5.3105 L17.7883333,5.3105 L17.7883333,5.95616667 L17.1058333,5.95616667 C16.8429444,5.95616667 16.6948889,5.99516667 16.5518889,6.13455556 C16.4291111,6.26166667 16.3446111,6.50072222 16.3446111,6.81705556 C16.3446111,7.13988889 16.4088889,7.37244444 16.5425,7.52411111 C16.653,7.64327778 16.8545,7.67938889 17.0444444,7.67938889 L17.368,7.67938889 L18.3827222,5.3105 L19.4617222,5.3105 L20.6808333,8.15894444 L20.6808333,5.3105 L21.7771667,5.3105 L23.0425,7.40783333 L23.0425,5.3105 L23.7798889,5.3105 L23.7798889,8.32216667 L23.7784444,8.32216667 Z M0,8.91366667 L1.22994444,8.91366667 L1.50727778,8.24488889 L2.12838889,8.24488889 L2.405,8.91366667 L4.82516667,8.91366667 L4.82516667,8.40233333 L5.04111111,8.91583333 L6.29777778,8.91583333 L6.51372222,8.39438889 L6.51372222,8.91366667 L12.5283889,8.91366667 L12.5255,7.81588889 L12.6417778,7.81588889 C12.7233889,7.81877778 12.7472222,7.826 12.7472222,7.96105556 L12.7472222,8.91438889 L15.8578333,8.91438889 L15.8578333,8.65872222 C16.1084444,8.79305556 16.4991667,8.91438889 17.0126667,8.91438889 L18.3213333,8.91438889 L18.6015556,8.24561111 L19.2226667,8.24561111 L19.4963889,8.91438889 L22.0183889,8.91438889 L22.0183889,8.27883333 L22.4004444,8.91438889 L24.4212222,8.91438889 L24.4212222,4.71322222 L22.4213889,4.71322222 L22.4213889,5.20938889 L22.1411667,4.71322222 L20.0893333,4.71322222 L20.0893333,5.20938889 L19.8322222,4.71322222 L17.0588889,4.71322222 C16.5945,4.71322222 16.1871667,4.77822222 15.8578333,4.95877778 L15.8578333,4.71322222 L13.9446667,4.71322222 L13.9446667,4.95877778 C13.7352222,4.77244444 13.4492222,4.71322222 13.1314444,4.71322222 L6.1425,4.71322222 L5.67377778,5.798 L5.19205556,4.71322222 L2.99072222,4.71322222 L2.99072222,5.20938889 L2.74877778,4.71322222 L0.871722222,4.71322222 L0,6.71016667 L0,8.91366667 Z" id="Shape" fill="#FFFFFF"></path>
                    <path d="M26,10.8521111 L24.6877222,10.8521111 C24.557,10.8521111 24.4696111,10.8571667 24.3966667,10.9062778 C24.3208333,10.9553889 24.2912222,11.0276111 24.2912222,11.1229444 C24.2912222,11.2363333 24.3555,11.3136111 24.4486667,11.3475556 C24.5245,11.3742778 24.6061111,11.3815 24.726,11.3815 L25.116,11.3916111 C25.5096111,11.4017222 25.7725,11.4688889 25.9328333,11.6342778 C25.9617222,11.6573889 25.9797778,11.6833889 25.9992778,11.7086667 L26,10.8521111 Z M26,12.8382222 C25.8252222,13.0938889 25.4843333,13.2231667 25.0228333,13.2231667 L23.6325556,13.2231667 L23.6325556,12.5775 L25.0170556,12.5775 C25.1542778,12.5775 25.2503333,12.5594444 25.3081111,12.5031111 C25.3579444,12.4568889 25.3933333,12.389 25.3933333,12.3066667 C25.3933333,12.2185556 25.3579444,12.1492222 25.3052222,12.1073333 C25.2532222,12.0611111 25.1773889,12.0401667 25.0517222,12.0401667 C24.3757222,12.0170556 23.5321667,12.0611111 23.5321667,11.1077778 C23.5321667,10.6708333 23.8095,10.2107778 24.5649444,10.2107778 L26,10.2107778 L26,9.61133333 L24.6675,9.61133333 C24.2652222,9.61133333 23.9734444,9.70738889 23.7668889,9.85761111 L23.7668889,9.61133333 L21.7959444,9.61133333 C21.4810556,9.61133333 21.1105556,9.68933333 20.9357778,9.85761111 L20.9357778,9.61133333 L17.4163889,9.61133333 L17.4163889,9.85761111 C17.1361667,9.65538889 16.6638333,9.61133333 16.4457222,9.61133333 L14.1245,9.61133333 L14.1245,9.85761111 C13.9027778,9.64311111 13.4102222,9.61133333 13.1097778,9.61133333 L10.5119444,9.61133333 L9.91827778,10.2555556 L9.36144444,9.61205556 L5.48094444,9.61205556 L5.48094444,13.8153889 L9.2885,13.8153889 L9.90094444,13.1617778 L10.478,13.8153889 L12.8252222,13.8175556 L12.8252222,12.8288333 L13.0556111,12.8288333 C13.3668889,12.8338889 13.7345,12.8208889 14.0580556,12.6807778 L14.0580556,13.8153889 L15.9936111,13.8153889 L15.9936111,12.7197778 L16.0867778,12.7197778 C16.2059444,12.7197778 16.2175,12.7248333 16.2175,12.844 L16.2175,13.8153889 L22.0978333,13.8153889 C22.4712222,13.8153889 22.8612222,13.7200556 23.0778889,13.5467222 L23.0778889,13.8153889 L24.9433889,13.8153889 C25.3312222,13.8153889 25.7103889,13.7612222 25.9992778,13.6218333 L25.9992778,12.8382222 L26,12.8382222 Z M23.1284444,11.635 C23.2685556,11.7801667 23.3436667,11.9628889 23.3436667,12.2734444 C23.3436667,12.9212778 22.9385,13.2238889 22.2126667,13.2238889 L20.8108333,13.2238889 L20.8108333,12.5782222 L22.2076111,12.5782222 C22.3441111,12.5782222 22.4408889,12.5601667 22.5015556,12.5038333 C22.5513889,12.4576111 22.5867778,12.3897222 22.5867778,12.3073889 C22.5867778,12.2192778 22.5485,12.1499444 22.4986667,12.1080556 C22.4437778,12.0618333 22.3679444,12.0408889 22.2422778,12.0408889 C21.5691667,12.0177778 20.7256111,12.0618333 20.7256111,11.1085 C20.7256111,10.6715556 21.0000556,10.2115 21.7547778,10.2115 L23.1977778,10.2115 L23.1977778,10.8528333 L21.8775556,10.8528333 C21.7468333,10.8528333 21.6616111,10.8578889 21.5893889,10.907 C21.5106667,10.9561111 21.4810556,11.0283333 21.4810556,11.1236667 C21.4810556,11.2370556 21.5482222,11.3143333 21.6385,11.3482778 C21.7143333,11.375 21.7959444,11.3822222 21.9187222,11.3822222 L22.3065556,11.3923333 C22.6972778,11.4024444 22.9652222,11.4696111 23.1284444,11.635 Z M16.6327778,11.4486667 C16.5367222,11.5057222 16.4175556,11.5107778 16.2774444,11.5107778 L15.4028333,11.5107778 L15.4028333,10.8340556 L16.289,10.8340556 C16.4168333,10.8340556 16.5453889,10.8369444 16.6327778,10.8882222 C16.7259444,10.9373333 16.7815556,11.0305 16.7815556,11.1590556 C16.7815556,11.2890556 16.7259444,11.3923333 16.6327778,11.4486667 Z M17.0675556,11.8242222 C17.2278889,11.8834444 17.3586111,11.9896111 17.42,12.077 C17.5218333,12.2243333 17.5362778,12.3615556 17.5391667,12.6266111 L17.5391667,13.2238889 L16.8162222,13.2238889 L16.8162222,12.8468889 C16.8162222,12.6656111 16.8335556,12.3969444 16.6999444,12.2575556 C16.5945,12.1499444 16.4341667,12.1239444 16.172,12.1239444 L15.4028333,12.1239444 L15.4028333,13.2246111 L14.6791667,13.2246111 L14.6791667,10.2122222 L16.341,10.2122222 C16.7057222,10.2122222 16.9707778,10.2281111 17.2069444,10.3545 C17.4344444,10.4917222 17.5767222,10.6795 17.5767222,11.0232778 C17.5774444,11.5035556 17.2567778,11.7483889 17.0675556,11.8242222 Z M17.9768333,10.2115 L20.3796667,10.2115 L20.3796667,10.8347778 L18.694,10.8347778 L18.694,11.3822222 L20.3385,11.3822222 L20.3385,11.9968333 L18.694,11.9968333 L18.694,12.5962778 L20.3796667,12.5991667 L20.3796667,13.2238889 L17.9768333,13.2238889 L17.9768333,10.2115 Z M13.1198889,11.6017778 L12.1896667,11.6017778 L12.1896667,10.8347778 L13.1285556,10.8347778 C13.3885556,10.8347778 13.5691111,10.9409444 13.5691111,11.2038333 C13.5683889,11.4645556 13.3965,11.6017778 13.1198889,11.6017778 Z M11.4725,12.9501667 L10.3675,11.7231111 L11.4725,10.5350556 L11.4725,12.9501667 Z M8.61827778,12.5962778 L6.84811111,12.5962778 L6.84811111,11.9968333 L8.42833333,11.9968333 L8.42833333,11.3822222 L6.84811111,11.3822222 L6.84811111,10.8347778 L8.65294444,10.8347778 L9.44016667,11.713 L8.61827778,12.5962778 Z M14.3411667,11.2038333 C14.3411667,12.0408889 13.7171667,12.2135 13.0873889,12.2135 L12.1889444,12.2135 L12.1889444,13.2238889 L10.79,13.2238889 L9.90383333,12.2265 L8.983,13.2238889 L6.13094444,13.2238889 L6.13094444,10.2115 L9.02633333,10.2115 L9.91177778,11.1987778 L10.8275556,10.2115 L13.1278333,10.2115 C13.6991111,10.2115 14.3411667,10.3696667 14.3411667,11.2038333 Z" id="Shape" fill="#FFFFFF"></path>
                </g>
            </g>
        </g>
    </g>
</svg>